<mxfile host="app.diagrams.net" modified="2024-04-09T14:16:09.705Z" agent="Mozilla/5.0 (Windows NT 10.0; Win64; x64) AppleWebKit/537.36 (KHTML, like Gecko) Chrome/123.0.0.0 Safari/537.36" etag="0dHFJOJMHxk_sz_C_aKI" version="24.2.3" type="google" pages="2">
  <diagram id="C5RBs43oDa-KdzZeNtuy" name="Page-1">
    <mxGraphModel grid="1" page="1" gridSize="10" guides="1" tooltips="1" connect="1" arrows="1" fold="1" pageScale="1" pageWidth="827" pageHeight="1169" math="0" shadow="0">
      <root>
        <mxCell id="WIyWlLk6GJQsqaUBKTNV-0" />
        <mxCell id="WIyWlLk6GJQsqaUBKTNV-1" parent="WIyWlLk6GJQsqaUBKTNV-0" />
        <mxCell id="997WrO4grzcI-CCzGd0I-0" value="Cine&lt;div&gt;&lt;br&gt;&lt;/div&gt;" style="swimlane;fontStyle=1;align=center;verticalAlign=top;childLayout=stackLayout;horizontal=1;startSize=26;horizontalStack=0;resizeParent=1;resizeParentMax=0;resizeLast=0;collapsible=1;marginBottom=0;whiteSpace=wrap;html=1;labelBackgroundColor=none;fillColor=#FAE5C7;strokeColor=#0F8B8D;fontColor=#143642;" vertex="1" parent="WIyWlLk6GJQsqaUBKTNV-1">
          <mxGeometry x="220" y="260" width="297.5" height="164" as="geometry" />
        </mxCell>
        <mxCell id="997WrO4grzcI-CCzGd0I-1" value="- nombreCine: String" style="text;strokeColor=none;fillColor=none;align=left;verticalAlign=top;spacingLeft=4;spacingRight=4;overflow=hidden;rotatable=0;points=[[0,0.5],[1,0.5]];portConstraint=eastwest;whiteSpace=wrap;html=1;labelBackgroundColor=none;fontColor=#143642;" vertex="1" parent="997WrO4grzcI-CCzGd0I-0">
          <mxGeometry y="26" width="297.5" height="26" as="geometry" />
        </mxCell>
        <mxCell id="997WrO4grzcI-CCzGd0I-2" value="" style="line;strokeWidth=1;fillColor=none;align=left;verticalAlign=middle;spacingTop=-1;spacingLeft=3;spacingRight=3;rotatable=0;labelPosition=right;points=[];portConstraint=eastwest;strokeColor=#0F8B8D;labelBackgroundColor=none;fontColor=#143642;" vertex="1" parent="997WrO4grzcI-CCzGd0I-0">
          <mxGeometry y="52" width="297.5" height="8" as="geometry" />
        </mxCell>
        <mxCell id="997WrO4grzcI-CCzGd0I-3" value="+ generarEntrada(String,int,Date) : Entrada" style="text;strokeColor=none;fillColor=none;align=left;verticalAlign=top;spacingLeft=4;spacingRight=4;overflow=hidden;rotatable=0;points=[[0,0.5],[1,0.5]];portConstraint=eastwest;whiteSpace=wrap;html=1;labelBackgroundColor=none;fontColor=#143642;" vertex="1" parent="997WrO4grzcI-CCzGd0I-0">
          <mxGeometry y="60" width="297.5" height="26" as="geometry" />
        </mxCell>
        <mxCell id="yqCngZz1ZRdMTzkboB4g-57" value="+&amp;nbsp;&lt;span style=&quot;color: rgb(0, 0, 0); font-size: 11px; text-align: center; text-wrap: nowrap; background-color: rgb(255, 255, 255);&quot;&gt;reservarButaca(idUsuario)&lt;/span&gt;&amp;nbsp;: Butaca" style="text;strokeColor=none;fillColor=none;align=left;verticalAlign=top;spacingLeft=4;spacingRight=4;overflow=hidden;rotatable=0;points=[[0,0.5],[1,0.5]];portConstraint=eastwest;whiteSpace=wrap;html=1;labelBackgroundColor=none;fontColor=#143642;" vertex="1" parent="997WrO4grzcI-CCzGd0I-0">
          <mxGeometry y="86" width="297.5" height="26" as="geometry" />
        </mxCell>
        <mxCell id="4W6rKK_VipjzRLHhjE4o-21" value="+ crearFuncion(String,Sala[][]) : void" style="text;strokeColor=none;fillColor=none;align=left;verticalAlign=top;spacingLeft=4;spacingRight=4;overflow=hidden;rotatable=0;points=[[0,0.5],[1,0.5]];portConstraint=eastwest;whiteSpace=wrap;html=1;labelBackgroundColor=none;fontColor=#143642;" vertex="1" parent="997WrO4grzcI-CCzGd0I-0">
          <mxGeometry y="112" width="297.5" height="26" as="geometry" />
        </mxCell>
        <mxCell id="yqCngZz1ZRdMTzkboB4g-13" value="+ verificarEntrada(Entrada) : bool" style="text;strokeColor=none;fillColor=none;align=left;verticalAlign=top;spacingLeft=4;spacingRight=4;overflow=hidden;rotatable=0;points=[[0,0.5],[1,0.5]];portConstraint=eastwest;whiteSpace=wrap;html=1;labelBackgroundColor=none;fontColor=#143642;" vertex="1" parent="997WrO4grzcI-CCzGd0I-0">
          <mxGeometry y="138" width="297.5" height="26" as="geometry" />
        </mxCell>
        <mxCell id="997WrO4grzcI-CCzGd0I-4" value="&lt;div&gt;Sala&lt;/div&gt;&lt;div&gt;&lt;br&gt;&lt;/div&gt;" style="swimlane;fontStyle=1;align=center;verticalAlign=top;childLayout=stackLayout;horizontal=1;startSize=26;horizontalStack=0;resizeParent=1;resizeParentMax=0;resizeLast=0;collapsible=1;marginBottom=0;whiteSpace=wrap;html=1;labelBackgroundColor=none;fillColor=#FAE5C7;strokeColor=#0F8B8D;fontColor=#143642;" vertex="1" parent="WIyWlLk6GJQsqaUBKTNV-1">
          <mxGeometry x="580" y="260" width="210" height="86" as="geometry" />
        </mxCell>
        <mxCell id="997WrO4grzcI-CCzGd0I-5" value="- num: int" style="text;strokeColor=none;fillColor=none;align=left;verticalAlign=top;spacingLeft=4;spacingRight=4;overflow=hidden;rotatable=0;points=[[0,0.5],[1,0.5]];portConstraint=eastwest;whiteSpace=wrap;html=1;labelBackgroundColor=none;fontColor=#143642;" vertex="1" parent="997WrO4grzcI-CCzGd0I-4">
          <mxGeometry y="26" width="210" height="26" as="geometry" />
        </mxCell>
        <mxCell id="997WrO4grzcI-CCzGd0I-6" value="" style="line;strokeWidth=1;fillColor=none;align=left;verticalAlign=middle;spacingTop=-1;spacingLeft=3;spacingRight=3;rotatable=0;labelPosition=right;points=[];portConstraint=eastwest;strokeColor=#0F8B8D;labelBackgroundColor=none;fontColor=#143642;" vertex="1" parent="997WrO4grzcI-CCzGd0I-4">
          <mxGeometry y="52" width="210" height="8" as="geometry" />
        </mxCell>
        <mxCell id="997WrO4grzcI-CCzGd0I-7" value="+ disponibilidadButaca()" style="text;strokeColor=none;fillColor=none;align=left;verticalAlign=top;spacingLeft=4;spacingRight=4;overflow=hidden;rotatable=0;points=[[0,0.5],[1,0.5]];portConstraint=eastwest;whiteSpace=wrap;html=1;labelBackgroundColor=none;fontColor=#143642;" vertex="1" parent="997WrO4grzcI-CCzGd0I-4">
          <mxGeometry y="60" width="210" height="26" as="geometry" />
        </mxCell>
        <mxCell id="997WrO4grzcI-CCzGd0I-8" value="&lt;div&gt;FunciÃ³n&lt;/div&gt;" style="swimlane;fontStyle=1;align=center;verticalAlign=top;childLayout=stackLayout;horizontal=1;startSize=26;horizontalStack=0;resizeParent=1;resizeParentMax=0;resizeLast=0;collapsible=1;marginBottom=0;whiteSpace=wrap;html=1;labelBackgroundColor=none;fillColor=#FAE5C7;strokeColor=#0F8B8D;fontColor=#143642;" vertex="1" parent="WIyWlLk6GJQsqaUBKTNV-1">
          <mxGeometry x="610" y="54" width="320" height="138" as="geometry" />
        </mxCell>
        <mxCell id="czUeKyajTrar-mp5qw6X-24" value="- fecha: Date" style="text;strokeColor=none;fillColor=none;align=left;verticalAlign=top;spacingLeft=4;spacingRight=4;overflow=hidden;rotatable=0;points=[[0,0.5],[1,0.5]];portConstraint=eastwest;whiteSpace=wrap;html=1;labelBackgroundColor=none;fontColor=#143642;" vertex="1" parent="997WrO4grzcI-CCzGd0I-8">
          <mxGeometry y="26" width="320" height="26" as="geometry" />
        </mxCell>
        <mxCell id="k0TKElHzimhfg8VDuHPB-0" value="- hora: Time" style="text;strokeColor=none;fillColor=none;align=left;verticalAlign=top;spacingLeft=4;spacingRight=4;overflow=hidden;rotatable=0;points=[[0,0.5],[1,0.5]];portConstraint=eastwest;whiteSpace=wrap;html=1;labelBackgroundColor=none;fontColor=#143642;" vertex="1" parent="997WrO4grzcI-CCzGd0I-8">
          <mxGeometry y="52" width="320" height="26" as="geometry" />
        </mxCell>
        <mxCell id="czUeKyajTrar-mp5qw6X-2" value="" style="line;strokeWidth=1;fillColor=none;align=left;verticalAlign=middle;spacingTop=-1;spacingLeft=3;spacingRight=3;rotatable=0;labelPosition=right;points=[];portConstraint=eastwest;strokeColor=#0F8B8D;labelBackgroundColor=none;fontColor=#143642;" vertex="1" parent="997WrO4grzcI-CCzGd0I-8">
          <mxGeometry y="78" width="320" height="8" as="geometry" />
        </mxCell>
        <mxCell id="yqCngZz1ZRdMTzkboB4g-56" value="+&amp;nbsp;&lt;span style=&quot;color: rgb(0, 0, 0); text-align: center; text-wrap: nowrap;&quot;&gt;funcionValida(nomPeli,fechaBuscada)&lt;/span&gt;&amp;nbsp;: boolean" style="text;strokeColor=none;fillColor=none;align=left;verticalAlign=top;spacingLeft=4;spacingRight=4;overflow=hidden;rotatable=0;points=[[0,0.5],[1,0.5]];portConstraint=eastwest;whiteSpace=wrap;html=1;labelBackgroundColor=none;fontColor=#143642;" vertex="1" parent="997WrO4grzcI-CCzGd0I-8">
          <mxGeometry y="86" width="320" height="26" as="geometry" />
        </mxCell>
        <mxCell id="czUeKyajTrar-mp5qw6X-1" value="+ tienePelicula(String): boolean" style="text;strokeColor=none;fillColor=none;align=left;verticalAlign=top;spacingLeft=4;spacingRight=4;overflow=hidden;rotatable=0;points=[[0,0.5],[1,0.5]];portConstraint=eastwest;whiteSpace=wrap;html=1;labelBackgroundColor=none;fontColor=#143642;" vertex="1" parent="997WrO4grzcI-CCzGd0I-8">
          <mxGeometry y="112" width="320" height="26" as="geometry" />
        </mxCell>
        <mxCell id="997WrO4grzcI-CCzGd0I-12" value="Espectador" style="swimlane;fontStyle=1;align=center;verticalAlign=top;childLayout=stackLayout;horizontal=1;startSize=26;horizontalStack=0;resizeParent=1;resizeParentMax=0;resizeLast=0;collapsible=1;marginBottom=0;whiteSpace=wrap;html=1;labelBackgroundColor=none;fillColor=#FAE5C7;strokeColor=#0F8B8D;fontColor=#143642;" vertex="1" parent="WIyWlLk6GJQsqaUBKTNV-1">
          <mxGeometry x="20" y="570" width="330" height="120" as="geometry" />
        </mxCell>
        <mxCell id="997WrO4grzcI-CCzGd0I-13" value="- id: int" style="text;strokeColor=none;fillColor=none;align=left;verticalAlign=top;spacingLeft=4;spacingRight=4;overflow=hidden;rotatable=0;points=[[0,0.5],[1,0.5]];portConstraint=eastwest;whiteSpace=wrap;html=1;labelBackgroundColor=none;fontColor=#143642;" vertex="1" parent="997WrO4grzcI-CCzGd0I-12">
          <mxGeometry y="26" width="330" height="26" as="geometry" />
        </mxCell>
        <mxCell id="997WrO4grzcI-CCzGd0I-14" value="" style="line;strokeWidth=1;fillColor=none;align=left;verticalAlign=middle;spacingTop=-1;spacingLeft=3;spacingRight=3;rotatable=0;labelPosition=right;points=[];portConstraint=eastwest;strokeColor=#0F8B8D;labelBackgroundColor=none;fontColor=#143642;" vertex="1" parent="997WrO4grzcI-CCzGd0I-12">
          <mxGeometry y="52" width="330" height="8" as="geometry" />
        </mxCell>
        <mxCell id="997WrO4grzcI-CCzGd0I-15" value="+ comprarEntradaFis(Cine,int,Date): Entrada&amp;nbsp;" style="text;strokeColor=none;fillColor=none;align=left;verticalAlign=top;spacingLeft=4;spacingRight=4;overflow=hidden;rotatable=0;points=[[0,0.5],[1,0.5]];portConstraint=eastwest;whiteSpace=wrap;html=1;labelBackgroundColor=none;fontColor=#143642;" vertex="1" parent="997WrO4grzcI-CCzGd0I-12">
          <mxGeometry y="60" width="330" height="30" as="geometry" />
        </mxCell>
        <mxCell id="4W6rKK_VipjzRLHhjE4o-5" value="+ comprarEntradaVir(App,String,String,int,Date): Entrada&amp;nbsp;" style="text;strokeColor=none;fillColor=none;align=left;verticalAlign=top;spacingLeft=4;spacingRight=4;overflow=hidden;rotatable=0;points=[[0,0.5],[1,0.5]];portConstraint=eastwest;whiteSpace=wrap;html=1;labelBackgroundColor=none;fontColor=#143642;" vertex="1" parent="997WrO4grzcI-CCzGd0I-12">
          <mxGeometry y="90" width="330" height="30" as="geometry" />
        </mxCell>
        <mxCell id="997WrO4grzcI-CCzGd0I-20" value="&lt;div&gt;Butaca&lt;/div&gt;" style="swimlane;fontStyle=1;align=center;verticalAlign=top;childLayout=stackLayout;horizontal=1;startSize=26;horizontalStack=0;resizeParent=1;resizeParentMax=0;resizeLast=0;collapsible=1;marginBottom=0;whiteSpace=wrap;html=1;labelBackgroundColor=none;fillColor=#FAE5C7;strokeColor=#0F8B8D;fontColor=#143642;" vertex="1" parent="WIyWlLk6GJQsqaUBKTNV-1">
          <mxGeometry x="590" y="420" width="160" height="116" as="geometry" />
        </mxCell>
        <mxCell id="yqCngZz1ZRdMTzkboB4g-11" value="- id: String" style="text;strokeColor=none;fillColor=none;align=left;verticalAlign=top;spacingLeft=4;spacingRight=4;overflow=hidden;rotatable=0;points=[[0,0.5],[1,0.5]];portConstraint=eastwest;whiteSpace=wrap;html=1;labelBackgroundColor=none;fontColor=#143642;" vertex="1" parent="997WrO4grzcI-CCzGd0I-20">
          <mxGeometry y="26" width="160" height="26" as="geometry" />
        </mxCell>
        <mxCell id="yqCngZz1ZRdMTzkboB4g-12" value="- idEspectador: int" style="text;strokeColor=none;fillColor=none;align=left;verticalAlign=top;spacingLeft=4;spacingRight=4;overflow=hidden;rotatable=0;points=[[0,0.5],[1,0.5]];portConstraint=eastwest;whiteSpace=wrap;html=1;labelBackgroundColor=none;fontColor=#143642;" vertex="1" parent="997WrO4grzcI-CCzGd0I-20">
          <mxGeometry y="52" width="160" height="26" as="geometry" />
        </mxCell>
        <mxCell id="997WrO4grzcI-CCzGd0I-22" value="" style="line;strokeWidth=1;fillColor=none;align=left;verticalAlign=middle;spacingTop=-1;spacingLeft=3;spacingRight=3;rotatable=0;labelPosition=right;points=[];portConstraint=eastwest;strokeColor=#0F8B8D;labelBackgroundColor=none;fontColor=#143642;" vertex="1" parent="997WrO4grzcI-CCzGd0I-20">
          <mxGeometry y="78" width="160" height="8" as="geometry" />
        </mxCell>
        <mxCell id="997WrO4grzcI-CCzGd0I-23" value="+ method(type): type" style="text;strokeColor=none;fillColor=none;align=left;verticalAlign=top;spacingLeft=4;spacingRight=4;overflow=hidden;rotatable=0;points=[[0,0.5],[1,0.5]];portConstraint=eastwest;whiteSpace=wrap;html=1;labelBackgroundColor=none;fontColor=#143642;" vertex="1" parent="997WrO4grzcI-CCzGd0I-20">
          <mxGeometry y="86" width="160" height="30" as="geometry" />
        </mxCell>
        <mxCell id="997WrO4grzcI-CCzGd0I-24" value="1...*" style="endArrow=open;html=1;endSize=12;startArrow=diamondThin;startSize=14;startFill=1;edgeStyle=orthogonalEdgeStyle;align=left;verticalAlign=bottom;rounded=0;labelBackgroundColor=none;strokeColor=#A8201A;fontColor=default;" edge="1" parent="WIyWlLk6GJQsqaUBKTNV-1" target="997WrO4grzcI-CCzGd0I-4">
          <mxGeometry x="0.5723" y="13" relative="1" as="geometry">
            <mxPoint x="520" y="302" as="sourcePoint" />
            <mxPoint x="590" y="303" as="targetPoint" />
            <mxPoint as="offset" />
          </mxGeometry>
        </mxCell>
        <mxCell id="4W6rKK_VipjzRLHhjE4o-20" value="- salas" style="edgeLabel;html=1;align=center;verticalAlign=middle;resizable=0;points=[];labelBackgroundColor=none;fontColor=#143642;" connectable="0" vertex="1" parent="997WrO4grzcI-CCzGd0I-24">
          <mxGeometry x="0.1711" y="-1" relative="1" as="geometry">
            <mxPoint x="-25" y="21" as="offset" />
          </mxGeometry>
        </mxCell>
        <mxCell id="997WrO4grzcI-CCzGd0I-25" value="" style="endArrow=open;html=1;endSize=12;startArrow=diamondThin;startSize=14;startFill=1;edgeStyle=orthogonalEdgeStyle;align=left;verticalAlign=bottom;rounded=0;labelBackgroundColor=none;strokeColor=#A8201A;fontColor=default;" edge="1" parent="WIyWlLk6GJQsqaUBKTNV-1" target="997WrO4grzcI-CCzGd0I-20">
          <mxGeometry x="-0.4286" y="-40" relative="1" as="geometry">
            <mxPoint x="670" y="346" as="sourcePoint" />
            <mxPoint x="670" y="430" as="targetPoint" />
            <mxPoint as="offset" />
          </mxGeometry>
        </mxCell>
        <mxCell id="czUeKyajTrar-mp5qw6X-14" value="1...*" style="edgeLabel;html=1;align=center;verticalAlign=middle;resizable=0;points=[];" connectable="0" vertex="1" parent="997WrO4grzcI-CCzGd0I-25">
          <mxGeometry x="0.3772" y="2" relative="1" as="geometry">
            <mxPoint x="18" y="6" as="offset" />
          </mxGeometry>
        </mxCell>
        <mxCell id="997WrO4grzcI-CCzGd0I-27" value="&lt;div&gt;Complejo&lt;/div&gt;" style="swimlane;fontStyle=1;align=center;verticalAlign=top;childLayout=stackLayout;horizontal=1;startSize=26;horizontalStack=0;resizeParent=1;resizeParentMax=0;resizeLast=0;collapsible=1;marginBottom=0;whiteSpace=wrap;html=1;labelBackgroundColor=none;fillColor=#FAE5C7;strokeColor=#0F8B8D;fontColor=#143642;" vertex="1" parent="WIyWlLk6GJQsqaUBKTNV-1">
          <mxGeometry x="277.5" y="90" width="285" height="112" as="geometry" />
        </mxCell>
        <mxCell id="997WrO4grzcI-CCzGd0I-28" value="- nombre: String" style="text;strokeColor=none;fillColor=none;align=left;verticalAlign=top;spacingLeft=4;spacingRight=4;overflow=hidden;rotatable=0;points=[[0,0.5],[1,0.5]];portConstraint=eastwest;whiteSpace=wrap;html=1;labelBackgroundColor=none;fontColor=#143642;" vertex="1" parent="997WrO4grzcI-CCzGd0I-27">
          <mxGeometry y="26" width="285" height="26" as="geometry" />
        </mxCell>
        <mxCell id="997WrO4grzcI-CCzGd0I-29" value="" style="line;strokeWidth=1;fillColor=none;align=left;verticalAlign=middle;spacingTop=-1;spacingLeft=3;spacingRight=3;rotatable=0;labelPosition=right;points=[];portConstraint=eastwest;strokeColor=#0F8B8D;labelBackgroundColor=none;fontColor=#143642;" vertex="1" parent="997WrO4grzcI-CCzGd0I-27">
          <mxGeometry y="52" width="285" height="8" as="geometry" />
        </mxCell>
        <mxCell id="4W6rKK_VipjzRLHhjE4o-8" value="+ generarEntradaCine(String,String) : Entrada" style="text;strokeColor=none;fillColor=none;align=left;verticalAlign=top;spacingLeft=4;spacingRight=4;overflow=hidden;rotatable=0;points=[[0,0.5],[1,0.5]];portConstraint=eastwest;whiteSpace=wrap;html=1;labelBackgroundColor=none;fontColor=#143642;" vertex="1" parent="997WrO4grzcI-CCzGd0I-27">
          <mxGeometry y="60" width="285" height="26" as="geometry" />
        </mxCell>
        <mxCell id="4W6rKK_VipjzRLHhjE4o-9" value="+ buscarCine(String) : Cine" style="text;strokeColor=none;fillColor=none;align=left;verticalAlign=top;spacingLeft=4;spacingRight=4;overflow=hidden;rotatable=0;points=[[0,0.5],[1,0.5]];portConstraint=eastwest;whiteSpace=wrap;html=1;labelBackgroundColor=none;fontColor=#143642;" vertex="1" parent="997WrO4grzcI-CCzGd0I-27">
          <mxGeometry y="86" width="285" height="26" as="geometry" />
        </mxCell>
        <mxCell id="997WrO4grzcI-CCzGd0I-34" value="1...*" style="endArrow=open;html=1;endSize=12;startArrow=diamondThin;startSize=14;startFill=0;edgeStyle=orthogonalEdgeStyle;align=left;verticalAlign=bottom;rounded=0;labelBackgroundColor=none;strokeColor=#A8201A;fontColor=default;" edge="1" parent="WIyWlLk6GJQsqaUBKTNV-1" target="997WrO4grzcI-CCzGd0I-8">
          <mxGeometry x="0.7647" y="30" relative="1" as="geometry">
            <mxPoint x="500" y="260" as="sourcePoint" />
            <mxPoint x="80" y="3" as="targetPoint" />
            <mxPoint as="offset" />
            <Array as="points">
              <mxPoint x="500" y="230" />
              <mxPoint x="670" y="230" />
            </Array>
          </mxGeometry>
        </mxCell>
        <mxCell id="yqCngZz1ZRdMTzkboB4g-7" value="- funciones" style="edgeLabel;html=1;align=center;verticalAlign=middle;resizable=0;points=[];" connectable="0" vertex="1" parent="997WrO4grzcI-CCzGd0I-34">
          <mxGeometry x="0.1515" y="2" relative="1" as="geometry">
            <mxPoint x="-12" y="-10" as="offset" />
          </mxGeometry>
        </mxCell>
        <mxCell id="997WrO4grzcI-CCzGd0I-35" value="&lt;div&gt;App&lt;/div&gt;" style="swimlane;fontStyle=1;align=center;verticalAlign=top;childLayout=stackLayout;horizontal=1;startSize=26;horizontalStack=0;resizeParent=1;resizeParentMax=0;resizeLast=0;collapsible=1;marginBottom=0;whiteSpace=wrap;html=1;labelBackgroundColor=none;fillColor=#FAE5C7;strokeColor=#0F8B8D;fontColor=#143642;" vertex="1" parent="WIyWlLk6GJQsqaUBKTNV-1">
          <mxGeometry x="-280" y="587" width="240" height="86" as="geometry" />
        </mxCell>
        <mxCell id="997WrO4grzcI-CCzGd0I-36" value="- nombre: String" style="text;strokeColor=none;fillColor=none;align=left;verticalAlign=top;spacingLeft=4;spacingRight=4;overflow=hidden;rotatable=0;points=[[0,0.5],[1,0.5]];portConstraint=eastwest;whiteSpace=wrap;html=1;labelBackgroundColor=none;fontColor=#143642;" vertex="1" parent="997WrO4grzcI-CCzGd0I-35">
          <mxGeometry y="26" width="240" height="26" as="geometry" />
        </mxCell>
        <mxCell id="997WrO4grzcI-CCzGd0I-37" value="" style="line;strokeWidth=1;fillColor=none;align=left;verticalAlign=middle;spacingTop=-1;spacingLeft=3;spacingRight=3;rotatable=0;labelPosition=right;points=[];portConstraint=eastwest;strokeColor=#0F8B8D;labelBackgroundColor=none;fontColor=#143642;" vertex="1" parent="997WrO4grzcI-CCzGd0I-35">
          <mxGeometry y="52" width="240" height="8" as="geometry" />
        </mxCell>
        <mxCell id="997WrO4grzcI-CCzGd0I-38" value="+ generarEntrada(String,String): Entrada" style="text;strokeColor=none;fillColor=none;align=left;verticalAlign=top;spacingLeft=4;spacingRight=4;overflow=hidden;rotatable=0;points=[[0,0.5],[1,0.5]];portConstraint=eastwest;whiteSpace=wrap;html=1;labelBackgroundColor=none;fontColor=#143642;" vertex="1" parent="997WrO4grzcI-CCzGd0I-35">
          <mxGeometry y="60" width="240" height="26" as="geometry" />
        </mxCell>
        <mxCell id="997WrO4grzcI-CCzGd0I-42" value="&lt;div&gt;Entrada&lt;/div&gt;" style="swimlane;fontStyle=1;align=center;verticalAlign=top;childLayout=stackLayout;horizontal=1;startSize=26;horizontalStack=0;resizeParent=1;resizeParentMax=0;resizeLast=0;collapsible=1;marginBottom=0;whiteSpace=wrap;html=1;labelBackgroundColor=none;fillColor=#FAE5C7;strokeColor=#0F8B8D;fontColor=#143642;" vertex="1" parent="WIyWlLk6GJQsqaUBKTNV-1">
          <mxGeometry x="105" y="750" width="160" height="112" as="geometry" />
        </mxCell>
        <mxCell id="997WrO4grzcI-CCzGd0I-43" value="- butId: String" style="text;strokeColor=none;fillColor=none;align=left;verticalAlign=top;spacingLeft=4;spacingRight=4;overflow=hidden;rotatable=0;points=[[0,0.5],[1,0.5]];portConstraint=eastwest;whiteSpace=wrap;html=1;labelBackgroundColor=none;fontColor=#143642;" vertex="1" parent="997WrO4grzcI-CCzGd0I-42">
          <mxGeometry y="26" width="160" height="26" as="geometry" />
        </mxCell>
        <mxCell id="yqCngZz1ZRdMTzkboB4g-51" value="- fecha: String" style="text;strokeColor=none;fillColor=none;align=left;verticalAlign=top;spacingLeft=4;spacingRight=4;overflow=hidden;rotatable=0;points=[[0,0.5],[1,0.5]];portConstraint=eastwest;whiteSpace=wrap;html=1;labelBackgroundColor=none;fontColor=#143642;" vertex="1" parent="997WrO4grzcI-CCzGd0I-42">
          <mxGeometry y="52" width="160" height="26" as="geometry" />
        </mxCell>
        <mxCell id="997WrO4grzcI-CCzGd0I-44" value="" style="line;strokeWidth=1;fillColor=none;align=left;verticalAlign=middle;spacingTop=-1;spacingLeft=3;spacingRight=3;rotatable=0;labelPosition=right;points=[];portConstraint=eastwest;strokeColor=#0F8B8D;labelBackgroundColor=none;fontColor=#143642;" vertex="1" parent="997WrO4grzcI-CCzGd0I-42">
          <mxGeometry y="78" width="160" height="8" as="geometry" />
        </mxCell>
        <mxCell id="997WrO4grzcI-CCzGd0I-45" value="+ method(type): type" style="text;strokeColor=none;fillColor=none;align=left;verticalAlign=top;spacingLeft=4;spacingRight=4;overflow=hidden;rotatable=0;points=[[0,0.5],[1,0.5]];portConstraint=eastwest;whiteSpace=wrap;html=1;labelBackgroundColor=none;fontColor=#143642;" vertex="1" parent="997WrO4grzcI-CCzGd0I-42">
          <mxGeometry y="86" width="160" height="26" as="geometry" />
        </mxCell>
        <mxCell id="997WrO4grzcI-CCzGd0I-48" value="" style="endArrow=open;endSize=12;dashed=1;html=1;rounded=0;entryX=1;entryY=0.5;entryDx=0;entryDy=0;labelBackgroundColor=none;strokeColor=#A8201A;fontColor=default;" edge="1" parent="WIyWlLk6GJQsqaUBKTNV-1" source="997WrO4grzcI-CCzGd0I-12" target="997WrO4grzcI-CCzGd0I-36">
          <mxGeometry width="160" relative="1" as="geometry">
            <mxPoint x="240" y="610" as="sourcePoint" />
            <mxPoint x="391.03999999999996" y="750" as="targetPoint" />
            <Array as="points" />
          </mxGeometry>
        </mxCell>
        <mxCell id="997WrO4grzcI-CCzGd0I-64" value="&lt;div&gt;Almohadon&lt;/div&gt;" style="swimlane;fontStyle=1;align=center;verticalAlign=top;childLayout=stackLayout;horizontal=1;startSize=26;horizontalStack=0;resizeParent=1;resizeParentMax=0;resizeLast=0;collapsible=1;marginBottom=0;whiteSpace=wrap;html=1;labelBackgroundColor=none;fillColor=#FAE5C7;strokeColor=#0F8B8D;fontColor=#143642;" vertex="1" parent="WIyWlLk6GJQsqaUBKTNV-1">
          <mxGeometry x="827" y="435" width="160" height="86" as="geometry" />
        </mxCell>
        <mxCell id="997WrO4grzcI-CCzGd0I-65" value="+ field: type" style="text;strokeColor=none;fillColor=none;align=left;verticalAlign=top;spacingLeft=4;spacingRight=4;overflow=hidden;rotatable=0;points=[[0,0.5],[1,0.5]];portConstraint=eastwest;whiteSpace=wrap;html=1;labelBackgroundColor=none;fontColor=#143642;" vertex="1" parent="997WrO4grzcI-CCzGd0I-64">
          <mxGeometry y="26" width="160" height="26" as="geometry" />
        </mxCell>
        <mxCell id="997WrO4grzcI-CCzGd0I-66" value="" style="line;strokeWidth=1;fillColor=none;align=left;verticalAlign=middle;spacingTop=-1;spacingLeft=3;spacingRight=3;rotatable=0;labelPosition=right;points=[];portConstraint=eastwest;strokeColor=#0F8B8D;labelBackgroundColor=none;fontColor=#143642;" vertex="1" parent="997WrO4grzcI-CCzGd0I-64">
          <mxGeometry y="52" width="160" height="8" as="geometry" />
        </mxCell>
        <mxCell id="997WrO4grzcI-CCzGd0I-67" value="+ method(type): type" style="text;strokeColor=none;fillColor=none;align=left;verticalAlign=top;spacingLeft=4;spacingRight=4;overflow=hidden;rotatable=0;points=[[0,0.5],[1,0.5]];portConstraint=eastwest;whiteSpace=wrap;html=1;labelBackgroundColor=none;fontColor=#143642;" vertex="1" parent="997WrO4grzcI-CCzGd0I-64">
          <mxGeometry y="60" width="160" height="26" as="geometry" />
        </mxCell>
        <mxCell id="997WrO4grzcI-CCzGd0I-68" value="0...*" style="endArrow=open;html=1;endSize=12;startArrow=diamondThin;startSize=14;startFill=0;edgeStyle=orthogonalEdgeStyle;align=left;verticalAlign=bottom;rounded=0;labelBackgroundColor=none;strokeColor=#A8201A;fontColor=default;" edge="1" parent="WIyWlLk6GJQsqaUBKTNV-1" source="997WrO4grzcI-CCzGd0I-4" target="997WrO4grzcI-CCzGd0I-64">
          <mxGeometry x="0.8136" y="-27" relative="1" as="geometry">
            <mxPoint x="1040" y="372" as="sourcePoint" />
            <mxPoint x="920" y="402" as="targetPoint" />
            <Array as="points">
              <mxPoint x="907" y="303" />
            </Array>
            <mxPoint as="offset" />
          </mxGeometry>
        </mxCell>
        <mxCell id="997WrO4grzcI-CCzGd0I-73" value="1" style="endArrow=open;html=1;endSize=12;startArrow=diamondThin;startSize=14;startFill=0;edgeStyle=orthogonalEdgeStyle;align=left;verticalAlign=bottom;rounded=0;labelBackgroundColor=none;strokeColor=#A8201A;fontColor=default;" edge="1" parent="WIyWlLk6GJQsqaUBKTNV-1" source="997WrO4grzcI-CCzGd0I-0" target="997WrO4grzcI-CCzGd0I-42">
          <mxGeometry x="0.9671" y="-13" relative="1" as="geometry">
            <mxPoint x="440" y="380" as="sourcePoint" />
            <mxPoint x="250" y="929" as="targetPoint" />
            <Array as="points">
              <mxPoint x="440" y="793" />
            </Array>
            <mxPoint as="offset" />
          </mxGeometry>
        </mxCell>
        <mxCell id="997WrO4grzcI-CCzGd0I-31" value="" style="endArrow=open;html=1;endSize=12;startArrow=diamondThin;startSize=14;startFill=1;edgeStyle=orthogonalEdgeStyle;align=left;verticalAlign=bottom;rounded=0;labelBackgroundColor=none;strokeColor=#A8201A;fontColor=default;" edge="1" parent="WIyWlLk6GJQsqaUBKTNV-1" source="997WrO4grzcI-CCzGd0I-27">
          <mxGeometry x="-0.3793" y="-19" relative="1" as="geometry">
            <mxPoint x="419.5" y="156" as="sourcePoint" />
            <mxPoint x="419.5" y="260" as="targetPoint" />
            <mxPoint as="offset" />
          </mxGeometry>
        </mxCell>
        <mxCell id="4W6rKK_VipjzRLHhjE4o-0" value="0...*" style="edgeLabel;html=1;align=center;verticalAlign=middle;resizable=0;points=[];labelBackgroundColor=none;fontColor=#143642;" connectable="0" vertex="1" parent="997WrO4grzcI-CCzGd0I-31">
          <mxGeometry x="0.4615" relative="1" as="geometry">
            <mxPoint x="21" y="8" as="offset" />
          </mxGeometry>
        </mxCell>
        <mxCell id="997WrO4grzcI-CCzGd0I-63" value="1" style="endArrow=open;html=1;endSize=12;startArrow=diamondThin;startSize=14;startFill=0;edgeStyle=orthogonalEdgeStyle;align=left;verticalAlign=bottom;rounded=0;entryX=0.381;entryY=-0.035;entryDx=0;entryDy=0;entryPerimeter=0;labelBackgroundColor=none;strokeColor=#A8201A;fontColor=default;" edge="1" parent="WIyWlLk6GJQsqaUBKTNV-1" source="997WrO4grzcI-CCzGd0I-12">
          <mxGeometry x="0.7872" y="-20" relative="1" as="geometry">
            <mxPoint x="169.25" y="659.01" as="sourcePoint" />
            <mxPoint x="170.21000000000004" y="750" as="targetPoint" />
            <mxPoint as="offset" />
          </mxGeometry>
        </mxCell>
        <mxCell id="997WrO4grzcI-CCzGd0I-71" value="" style="endArrow=open;endSize=12;html=1;rounded=0;labelBackgroundColor=none;strokeColor=#A8201A;fontColor=default;startArrow=diamondThin;startFill=0;startSize=14;" edge="1" parent="WIyWlLk6GJQsqaUBKTNV-1" source="997WrO4grzcI-CCzGd0I-20" target="997WrO4grzcI-CCzGd0I-64">
          <mxGeometry width="160" relative="1" as="geometry">
            <mxPoint x="851" y="552" as="sourcePoint" />
            <mxPoint x="910" y="562" as="targetPoint" />
          </mxGeometry>
        </mxCell>
        <mxCell id="czUeKyajTrar-mp5qw6X-22" value="0..1" style="edgeLabel;html=1;align=center;verticalAlign=middle;resizable=0;points=[];" connectable="0" vertex="1" parent="997WrO4grzcI-CCzGd0I-71">
          <mxGeometry x="-0.3397" y="-2" relative="1" as="geometry">
            <mxPoint x="35" y="15" as="offset" />
          </mxGeometry>
        </mxCell>
        <mxCell id="4W6rKK_VipjzRLHhjE4o-6" value="" style="endArrow=open;endSize=12;dashed=1;html=1;rounded=0;edgeStyle=orthogonalEdgeStyle;labelBackgroundColor=none;strokeColor=#A8201A;fontColor=default;" edge="1" parent="WIyWlLk6GJQsqaUBKTNV-1" source="997WrO4grzcI-CCzGd0I-35" target="997WrO4grzcI-CCzGd0I-42">
          <mxGeometry width="160" relative="1" as="geometry">
            <mxPoint x="60" y="619" as="sourcePoint" />
            <mxPoint x="-30" y="619" as="targetPoint" />
            <Array as="points">
              <mxPoint x="-150" y="793" />
            </Array>
          </mxGeometry>
        </mxCell>
        <mxCell id="4W6rKK_VipjzRLHhjE4o-7" value="1" style="endArrow=diamondThin;html=1;endSize=12;startArrow=open;startSize=14;startFill=0;edgeStyle=orthogonalEdgeStyle;align=left;verticalAlign=bottom;rounded=0;endFill=0;labelBackgroundColor=none;strokeColor=#A8201A;fontColor=default;" edge="1" parent="WIyWlLk6GJQsqaUBKTNV-1" source="997WrO4grzcI-CCzGd0I-27" target="997WrO4grzcI-CCzGd0I-35">
          <mxGeometry x="-0.9355" y="-10" relative="1" as="geometry">
            <mxPoint x="240" y="190" as="sourcePoint" />
            <mxPoint x="270" y="470" as="targetPoint" />
            <Array as="points">
              <mxPoint x="-150" y="120" />
            </Array>
            <mxPoint as="offset" />
          </mxGeometry>
        </mxCell>
        <mxCell id="4W6rKK_VipjzRLHhjE4o-10" value="" style="endArrow=open;endSize=12;dashed=1;html=1;rounded=0;exitX=1;exitY=0;exitDx=0;exitDy=0;labelBackgroundColor=none;strokeColor=#A8201A;fontColor=default;" edge="1" parent="WIyWlLk6GJQsqaUBKTNV-1" source="997WrO4grzcI-CCzGd0I-12" target="997WrO4grzcI-CCzGd0I-0">
          <mxGeometry width="160" relative="1" as="geometry">
            <mxPoint x="320" y="580" as="sourcePoint" />
            <mxPoint x="407.5553516819571" y="330" as="targetPoint" />
            <Array as="points">
              <mxPoint x="340" y="570" />
              <mxPoint x="370" y="570" />
              <mxPoint x="370" y="560" />
            </Array>
          </mxGeometry>
        </mxCell>
        <mxCell id="nvraT7d2vMdPiu7LviSC-4" value="" style="endArrow=open;endSize=12;html=1;rounded=0;labelBackgroundColor=none;strokeColor=#A8201A;fontColor=default;startArrow=diamondThin;startFill=1;startSize=14;entryX=0.9;entryY=0.012;entryDx=0;entryDy=0;entryPerimeter=0;" edge="1" parent="WIyWlLk6GJQsqaUBKTNV-1" source="997WrO4grzcI-CCzGd0I-8" target="997WrO4grzcI-CCzGd0I-4">
          <mxGeometry x="0.6113" y="-11" width="160" relative="1" as="geometry">
            <mxPoint x="710.3200000000002" y="186.34000000000003" as="sourcePoint" />
            <mxPoint x="750" y="220" as="targetPoint" />
            <mxPoint as="offset" />
            <Array as="points" />
          </mxGeometry>
        </mxCell>
        <mxCell id="i2DjCtINm_LK0CDdSWIb-1" value="1" style="edgeLabel;html=1;align=center;verticalAlign=middle;resizable=0;points=[];" connectable="0" vertex="1" parent="nvraT7d2vMdPiu7LviSC-4">
          <mxGeometry x="-0.0556" relative="1" as="geometry">
            <mxPoint x="19" y="-30" as="offset" />
          </mxGeometry>
        </mxCell>
        <mxCell id="czUeKyajTrar-mp5qw6X-0" value="- Sala" style="edgeLabel;html=1;align=center;verticalAlign=middle;resizable=0;points=[];" connectable="0" vertex="1" parent="nvraT7d2vMdPiu7LviSC-4">
          <mxGeometry x="0.2337" y="2" relative="1" as="geometry">
            <mxPoint x="17" y="9" as="offset" />
          </mxGeometry>
        </mxCell>
        <mxCell id="i2DjCtINm_LK0CDdSWIb-0" value="&lt;div&gt;(simil Cinemark, Multiplex, Hoyts, etc.)&lt;span style=&quot;white-space-collapse: preserve;&quot;&gt;&#x9;&lt;/span&gt;&lt;/div&gt;&lt;div&gt;Tengo complejo donde hay varios cines.&lt;/div&gt;&lt;div&gt;Cada cine tiene varias salas.&lt;/div&gt;&lt;div&gt;Los espectadores compran las entradas. Las pueden comprar desde una app o en forma presencial.&lt;/div&gt;&lt;div&gt;Cada sala tiene asientos o butacas.&lt;/div&gt;&lt;div&gt;En cada cine hay funciones de pelÃ­culas en distintos dÃ­as y horarios.&lt;/div&gt;&lt;div&gt;Para entrar al cine, el espectador debe tener su ticket.&lt;/div&gt;&lt;div&gt;Hay almohadones para los mÃ¡s pequeÃ±os, asÃ­ pueden ver su pelÃ­cula favorita.&lt;/div&gt;&lt;div&gt;&lt;br&gt;&lt;/div&gt;&lt;div&gt;Modelar las clases en uml diagrama de clases, las relaciones entre clase (asociaciones, navegaciÃ³n), sus atributos y mÃ©todos (mÃ­nimos),&amp;nbsp;&lt;/div&gt;&lt;div&gt;multiplicidad o cardinalidad.&lt;/div&gt;" style="text;html=1;align=center;verticalAlign=middle;resizable=0;points=[];autosize=1;strokeColor=none;fillColor=none;" vertex="1" parent="WIyWlLk6GJQsqaUBKTNV-1">
          <mxGeometry x="-571" y="218" width="760" height="170" as="geometry" />
        </mxCell>
        <mxCell id="czUeKyajTrar-mp5qw6X-15" value="&lt;div&gt;Pelicula&lt;/div&gt;" style="swimlane;fontStyle=1;align=center;verticalAlign=top;childLayout=stackLayout;horizontal=1;startSize=26;horizontalStack=0;resizeParent=1;resizeParentMax=0;resizeLast=0;collapsible=1;marginBottom=0;whiteSpace=wrap;html=1;labelBackgroundColor=none;fillColor=#FAE5C7;strokeColor=#0F8B8D;fontColor=#143642;" vertex="1" parent="WIyWlLk6GJQsqaUBKTNV-1">
          <mxGeometry x="1100" y="54" width="160" height="112" as="geometry" />
        </mxCell>
        <mxCell id="czUeKyajTrar-mp5qw6X-16" value="- nombre: String" style="text;strokeColor=none;fillColor=none;align=left;verticalAlign=top;spacingLeft=4;spacingRight=4;overflow=hidden;rotatable=0;points=[[0,0.5],[1,0.5]];portConstraint=eastwest;whiteSpace=wrap;html=1;labelBackgroundColor=none;fontColor=#143642;" vertex="1" parent="czUeKyajTrar-mp5qw6X-15">
          <mxGeometry y="26" width="160" height="26" as="geometry" />
        </mxCell>
        <mxCell id="czUeKyajTrar-mp5qw6X-25" value="- duracion: int" style="text;strokeColor=none;fillColor=none;align=left;verticalAlign=top;spacingLeft=4;spacingRight=4;overflow=hidden;rotatable=0;points=[[0,0.5],[1,0.5]];portConstraint=eastwest;whiteSpace=wrap;html=1;labelBackgroundColor=none;fontColor=#143642;" vertex="1" parent="czUeKyajTrar-mp5qw6X-15">
          <mxGeometry y="52" width="160" height="26" as="geometry" />
        </mxCell>
        <mxCell id="czUeKyajTrar-mp5qw6X-17" value="" style="line;strokeWidth=1;fillColor=none;align=left;verticalAlign=middle;spacingTop=-1;spacingLeft=3;spacingRight=3;rotatable=0;labelPosition=right;points=[];portConstraint=eastwest;strokeColor=#0F8B8D;labelBackgroundColor=none;fontColor=#143642;" vertex="1" parent="czUeKyajTrar-mp5qw6X-15">
          <mxGeometry y="78" width="160" height="8" as="geometry" />
        </mxCell>
        <mxCell id="czUeKyajTrar-mp5qw6X-18" value="+ mostrar(): void" style="text;strokeColor=none;fillColor=none;align=left;verticalAlign=top;spacingLeft=4;spacingRight=4;overflow=hidden;rotatable=0;points=[[0,0.5],[1,0.5]];portConstraint=eastwest;whiteSpace=wrap;html=1;labelBackgroundColor=none;fontColor=#143642;" vertex="1" parent="czUeKyajTrar-mp5qw6X-15">
          <mxGeometry y="86" width="160" height="26" as="geometry" />
        </mxCell>
        <mxCell id="czUeKyajTrar-mp5qw6X-20" value="1" style="endArrow=open;html=1;endSize=12;startArrow=diamondThin;startSize=14;startFill=1;edgeStyle=orthogonalEdgeStyle;align=left;verticalAlign=bottom;rounded=0;fillColor=#f8cecc;strokeColor=#b85450;" edge="1" parent="WIyWlLk6GJQsqaUBKTNV-1" source="997WrO4grzcI-CCzGd0I-8" target="czUeKyajTrar-mp5qw6X-15">
          <mxGeometry x="0.5556" y="10" relative="1" as="geometry">
            <mxPoint x="700" y="50" as="sourcePoint" />
            <mxPoint x="860" y="50" as="targetPoint" />
            <mxPoint x="-1" as="offset" />
          </mxGeometry>
        </mxCell>
        <mxCell id="yqCngZz1ZRdMTzkboB4g-52" value="- pelicula" style="edgeLabel;html=1;align=center;verticalAlign=middle;resizable=0;points=[];" connectable="0" vertex="1" parent="czUeKyajTrar-mp5qw6X-20">
          <mxGeometry x="0.0222" y="-3" relative="1" as="geometry">
            <mxPoint x="-9" y="-20" as="offset" />
          </mxGeometry>
        </mxCell>
      </root>
    </mxGraphModel>
  </diagram>
  <diagram id="hbIqHN3Rs3RaAIFwoXrs" name="PÃ¡gina-2">
    <mxGraphModel grid="1" page="1" gridSize="10" guides="1" tooltips="1" connect="1" arrows="1" fold="1" pageScale="1" pageWidth="1654" pageHeight="2336" math="0" shadow="0">
      <root>
        <mxCell id="0" />
        <mxCell id="1" parent="0" />
        <mxCell id="sP8aPzcV_vmlQebv2R2w-1" value="atlas : Cine" style="shape=umlLifeline;perimeter=lifelinePerimeter;whiteSpace=wrap;html=1;container=1;dropTarget=0;collapsible=0;recursiveResize=0;outlineConnect=0;portConstraint=eastwest;newEdgeStyle={&quot;curved&quot;:0,&quot;rounded&quot;:0};labelBackgroundColor=none;fillColor=#FAE5C7;strokeColor=#0F8B8D;fontColor=#143642;" vertex="1" parent="1">
          <mxGeometry x="-671" y="1070" width="100" height="510" as="geometry" />
        </mxCell>
        <mxCell id="sP8aPzcV_vmlQebv2R2w-2" value="" style="html=1;points=[[0,0,0,0,5],[0,1,0,0,-5],[1,0,0,0,5],[1,1,0,0,-5]];perimeter=orthogonalPerimeter;outlineConnect=0;targetShapes=umlLifeline;portConstraint=eastwest;newEdgeStyle={&quot;curved&quot;:0,&quot;rounded&quot;:0};labelBackgroundColor=none;fillColor=#FAE5C7;strokeColor=#0F8B8D;fontColor=#143642;" vertex="1" parent="sP8aPzcV_vmlQebv2R2w-1">
          <mxGeometry x="45" y="44" width="10" height="416" as="geometry" />
        </mxCell>
        <mxCell id="sP8aPzcV_vmlQebv2R2w-3" value="GenerarEntrada(nomPeli,idUsuario,fechaBuscada)" style="html=1;verticalAlign=bottom;endArrow=block;curved=0;rounded=0;entryX=0;entryY=0;entryDx=0;entryDy=5;labelBackgroundColor=none;strokeColor=#A8201A;fontColor=default;" edge="1" parent="sP8aPzcV_vmlQebv2R2w-1" source="sP8aPzcV_vmlQebv2R2w-8">
          <mxGeometry x="-0.0031" y="4" relative="1" as="geometry">
            <mxPoint x="-25" y="64" as="sourcePoint" />
            <mxPoint x="45" y="64.00000000000023" as="targetPoint" />
            <mxPoint x="1" as="offset" />
          </mxGeometry>
        </mxCell>
        <mxCell id="sP8aPzcV_vmlQebv2R2w-4" value="f : Funcion" style="shape=umlLifeline;perimeter=lifelinePerimeter;whiteSpace=wrap;html=1;container=1;dropTarget=0;collapsible=0;recursiveResize=0;outlineConnect=0;portConstraint=eastwest;newEdgeStyle={&quot;curved&quot;:0,&quot;rounded&quot;:0};labelBackgroundColor=none;fillColor=#FAE5C7;strokeColor=#0F8B8D;fontColor=#143642;size=30;" vertex="1" parent="1">
          <mxGeometry x="-279" y="1070" width="100" height="510" as="geometry" />
        </mxCell>
        <mxCell id="sP8aPzcV_vmlQebv2R2w-5" value="" style="html=1;points=[[0,0,0,0,5],[0,1,0,0,-5],[1,0,0,0,5],[1,1,0,0,-5]];perimeter=orthogonalPerimeter;outlineConnect=0;targetShapes=umlLifeline;portConstraint=eastwest;newEdgeStyle={&quot;curved&quot;:0,&quot;rounded&quot;:0};labelBackgroundColor=none;fillColor=#FAE5C7;strokeColor=#0F8B8D;fontColor=#143642;" vertex="1" parent="sP8aPzcV_vmlQebv2R2w-4">
          <mxGeometry x="45" y="110" width="10" height="70" as="geometry" />
        </mxCell>
        <mxCell id="sP8aPzcV_vmlQebv2R2w-6" value="funcionValida(nomPeli,fechaBuscada)" style="html=1;verticalAlign=bottom;endArrow=block;curved=0;rounded=0;labelBackgroundColor=none;strokeColor=#A8201A;fontColor=default;" edge="1" parent="1">
          <mxGeometry x="0.383" relative="1" as="geometry">
            <mxPoint x="-620" y="1180" as="sourcePoint" />
            <mxPoint x="-234" y="1182" as="targetPoint" />
            <mxPoint as="offset" />
          </mxGeometry>
        </mxCell>
        <mxCell id="sP8aPzcV_vmlQebv2R2w-7" value="&lt;span style=&quot;background-color: rgb(255, 255, 255);&quot;&gt;nomPeli==p.Nombre &amp;amp;&amp;amp; fechaBuscada == f.Fecha&lt;/span&gt;" style="html=1;verticalAlign=bottom;endArrow=open;dashed=1;endSize=8;curved=0;rounded=0;exitX=0;exitY=1;exitDx=0;exitDy=-5;labelBackgroundColor=none;strokeColor=#A8201A;fontColor=default;" edge="1" parent="1" source="sP8aPzcV_vmlQebv2R2w-5">
          <mxGeometry relative="1" as="geometry">
            <mxPoint x="-620" y="1245" as="targetPoint" />
          </mxGeometry>
        </mxCell>
        <mxCell id="sP8aPzcV_vmlQebv2R2w-8" value="" style="shape=umlLifeline;perimeter=lifelinePerimeter;whiteSpace=wrap;html=1;container=1;dropTarget=0;collapsible=0;recursiveResize=0;outlineConnect=0;portConstraint=eastwest;newEdgeStyle={&quot;curved&quot;:0,&quot;rounded&quot;:0};participant=umlActor;size=40;" vertex="1" parent="1">
          <mxGeometry x="-912" y="1070" width="20" height="510" as="geometry" />
        </mxCell>
        <mxCell id="sP8aPzcV_vmlQebv2R2w-9" value="" style="html=1;points=[[0,0,0,0,5],[0,1,0,0,-5],[1,0,0,0,5],[1,1,0,0,-5]];perimeter=orthogonalPerimeter;outlineConnect=0;targetShapes=umlLifeline;portConstraint=eastwest;newEdgeStyle={&quot;curved&quot;:0,&quot;rounded&quot;:0};" vertex="1" parent="sP8aPzcV_vmlQebv2R2w-8">
          <mxGeometry x="5" y="50" width="10" height="440" as="geometry" />
        </mxCell>
        <mxCell id="sP8aPzcV_vmlQebv2R2w-10" value="Espectador" style="text;html=1;align=center;verticalAlign=middle;resizable=0;points=[];autosize=1;strokeColor=none;fillColor=none;" vertex="1" parent="1">
          <mxGeometry x="-827" y="1040" width="80" height="30" as="geometry" />
        </mxCell>
        <mxCell id="sP8aPzcV_vmlQebv2R2w-11" value="entrada" style="html=1;verticalAlign=bottom;endArrow=open;dashed=1;endSize=8;curved=0;rounded=0;labelBackgroundColor=none;strokeColor=#A8201A;fontColor=default;exitX=0;exitY=1;exitDx=0;exitDy=-5;exitPerimeter=0;" edge="1" parent="1" source="sP8aPzcV_vmlQebv2R2w-2" target="sP8aPzcV_vmlQebv2R2w-8">
          <mxGeometry relative="1" as="geometry">
            <mxPoint x="-711" y="1335" as="targetPoint" />
            <mxPoint x="-640" y="1530" as="sourcePoint" />
          </mxGeometry>
        </mxCell>
        <mxCell id="sP8aPzcV_vmlQebv2R2w-12" value="loop" style="shape=umlFrame;whiteSpace=wrap;html=1;pointerEvents=0;" vertex="1" parent="1">
          <mxGeometry x="-770" y="1160" width="1180" height="330" as="geometry" />
        </mxCell>
        <mxCell id="sP8aPzcV_vmlQebv2R2w-13" value="X cada elemento&lt;br&gt;en funciones" style="whiteSpace=wrap;html=1;gradientColor=none;labelBackgroundColor=none;fillColor=none;strokeColor=#ff0000;" vertex="1" parent="1">
          <mxGeometry x="310" y="1166" width="100" height="50" as="geometry" />
        </mxCell>
        <mxCell id="sP8aPzcV_vmlQebv2R2w-14" value="- pelicula : Pelicula" style="shape=umlLifeline;perimeter=lifelinePerimeter;whiteSpace=wrap;html=1;container=1;dropTarget=0;collapsible=0;recursiveResize=0;outlineConnect=0;portConstraint=eastwest;newEdgeStyle={&quot;curved&quot;:0,&quot;rounded&quot;:0};labelBackgroundColor=none;fillColor=#FAE5C7;strokeColor=#0F8B8D;fontColor=#143642;size=30;" vertex="1" parent="1">
          <mxGeometry x="-120" y="1070" width="100" height="510" as="geometry" />
        </mxCell>
        <mxCell id="sP8aPzcV_vmlQebv2R2w-15" value="" style="html=1;points=[[0,0,0,0,5],[0,1,0,0,-5],[1,0,0,0,5],[1,1,0,0,-5]];perimeter=orthogonalPerimeter;outlineConnect=0;targetShapes=umlLifeline;portConstraint=eastwest;newEdgeStyle={&quot;curved&quot;:0,&quot;rounded&quot;:0};fillColor=#ffe6cc;strokeColor=#d79b00;" vertex="1" parent="sP8aPzcV_vmlQebv2R2w-14">
          <mxGeometry x="45" y="110" width="10" height="21" as="geometry" />
        </mxCell>
        <mxCell id="sP8aPzcV_vmlQebv2R2w-16" value="nomPeli==p.Nombre" style="html=1;verticalAlign=bottom;endArrow=open;dashed=1;endSize=8;curved=0;rounded=0;exitX=0;exitY=1;exitDx=0;exitDy=-5;exitPerimeter=0;fillColor=#f8cecc;strokeColor=#b85450;" edge="1" parent="1" source="sP8aPzcV_vmlQebv2R2w-15">
          <mxGeometry x="-0.2903" y="24" relative="1" as="geometry">
            <mxPoint x="-230" y="1196" as="targetPoint" />
            <mxPoint x="-100" y="1197" as="sourcePoint" />
            <mxPoint as="offset" />
          </mxGeometry>
        </mxCell>
        <mxCell id="sP8aPzcV_vmlQebv2R2w-17" value="compararNombre(nomPeli)" style="html=1;verticalAlign=bottom;endArrow=block;curved=0;rounded=0;exitX=1;exitY=0;exitDx=0;exitDy=5;exitPerimeter=0;entryX=0;entryY=0;entryDx=0;entryDy=5;entryPerimeter=0;fillColor=#f8cecc;strokeColor=#b85450;" edge="1" parent="1" source="sP8aPzcV_vmlQebv2R2w-5" target="sP8aPzcV_vmlQebv2R2w-15">
          <mxGeometry relative="1" as="geometry">
            <mxPoint x="-145" y="1185" as="sourcePoint" />
            <mxPoint x="-90" y="1180" as="targetPoint" />
          </mxGeometry>
        </mxCell>
        <mxCell id="sP8aPzcV_vmlQebv2R2w-18" value="alt" style="shape=umlFrame;whiteSpace=wrap;html=1;pointerEvents=0;" vertex="1" parent="1">
          <mxGeometry x="-750" y="1262" width="1150" height="202" as="geometry" />
        </mxCell>
        <mxCell id="sP8aPzcV_vmlQebv2R2w-19" value="nomPeli==p.Nombre&lt;div&gt;&lt;div&gt;&amp;amp;&amp;amp;&lt;br&gt;&lt;span style=&quot;font-size: 11px; background-color: rgb(255, 255, 255);&quot;&gt;fechaBuscada == f.Fecha&lt;/span&gt;&lt;/div&gt;&lt;/div&gt;" style="text;html=1;align=center;verticalAlign=middle;resizable=0;points=[];autosize=1;strokeColor=none;fillColor=none;" vertex="1" parent="1">
          <mxGeometry x="-760" y="1290" width="150" height="60" as="geometry" />
        </mxCell>
        <mxCell id="sP8aPzcV_vmlQebv2R2w-20" value="- sala&lt;br&gt;&amp;nbsp;: Sala" style="shape=umlLifeline;perimeter=lifelinePerimeter;whiteSpace=wrap;html=1;container=1;dropTarget=0;collapsible=0;recursiveResize=0;outlineConnect=0;portConstraint=eastwest;newEdgeStyle={&quot;curved&quot;:0,&quot;rounded&quot;:0};labelBackgroundColor=none;fillColor=#FAE5C7;strokeColor=#0F8B8D;fontColor=#143642;size=30;" vertex="1" parent="1">
          <mxGeometry x="20" y="1070" width="100" height="510" as="geometry" />
        </mxCell>
        <mxCell id="sP8aPzcV_vmlQebv2R2w-21" value="" style="html=1;points=[[0,0,0,0,5],[0,1,0,0,-5],[1,0,0,0,5],[1,1,0,0,-5]];perimeter=orthogonalPerimeter;outlineConnect=0;targetShapes=umlLifeline;portConstraint=eastwest;newEdgeStyle={&quot;curved&quot;:0,&quot;rounded&quot;:0};fillColor=#ffe6cc;strokeColor=#d79b00;" vertex="1" parent="sP8aPzcV_vmlQebv2R2w-20">
          <mxGeometry x="45" y="207" width="10" height="167" as="geometry" />
        </mxCell>
        <mxCell id="sP8aPzcV_vmlQebv2R2w-22" value="b" style="html=1;verticalAlign=bottom;endArrow=open;dashed=1;endSize=8;curved=0;rounded=0;exitX=0;exitY=1;exitDx=0;exitDy=-5;fillColor=#f8cecc;strokeColor=#b85450;" edge="1" parent="1" source="sP8aPzcV_vmlQebv2R2w-21" target="sP8aPzcV_vmlQebv2R2w-37">
          <mxGeometry x="-0.2456" relative="1" as="geometry">
            <mxPoint x="-611" y="1312" as="targetPoint" />
            <mxPoint as="offset" />
          </mxGeometry>
        </mxCell>
        <mxCell id="sP8aPzcV_vmlQebv2R2w-23" value="reservarButaca(idUsuario)" style="html=1;verticalAlign=bottom;endArrow=block;curved=0;rounded=0;fillColor=#f8cecc;strokeColor=#b85450;entryX=0;entryY=0;entryDx=0;entryDy=5;entryPerimeter=0;" edge="1" parent="1">
          <mxGeometry x="0.0089" y="-25" relative="1" as="geometry">
            <mxPoint x="-620" y="1278" as="sourcePoint" />
            <mxPoint as="offset" />
            <mxPoint x="-234" y="1278" as="targetPoint" />
          </mxGeometry>
        </mxCell>
        <mxCell id="sP8aPzcV_vmlQebv2R2w-24" value="b : Butaca" style="shape=umlLifeline;perimeter=lifelinePerimeter;whiteSpace=wrap;html=1;container=1;dropTarget=0;collapsible=0;recursiveResize=0;outlineConnect=0;portConstraint=eastwest;newEdgeStyle={&quot;curved&quot;:0,&quot;rounded&quot;:0};labelBackgroundColor=none;fillColor=#FAE5C7;strokeColor=#0F8B8D;fontColor=#143642;size=30;" vertex="1" parent="1">
          <mxGeometry x="177.5" y="1070" width="100" height="510" as="geometry" />
        </mxCell>
        <mxCell id="sP8aPzcV_vmlQebv2R2w-25" value="" style="html=1;points=[[0,0,0,0,5],[0,1,0,0,-5],[1,0,0,0,5],[1,1,0,0,-5]];perimeter=orthogonalPerimeter;outlineConnect=0;targetShapes=umlLifeline;portConstraint=eastwest;newEdgeStyle={&quot;curved&quot;:0,&quot;rounded&quot;:0};fillColor=#ffe6cc;strokeColor=#d79b00;" vertex="1" parent="sP8aPzcV_vmlQebv2R2w-24">
          <mxGeometry x="45" y="324" width="10" height="20" as="geometry" />
        </mxCell>
        <mxCell id="sP8aPzcV_vmlQebv2R2w-26" value="loop" style="shape=umlFrame;whiteSpace=wrap;html=1;pointerEvents=0;" vertex="1" parent="1">
          <mxGeometry x="-10" y="1294" width="390" height="90" as="geometry" />
        </mxCell>
        <mxCell id="sP8aPzcV_vmlQebv2R2w-27" value="X cada elemento&lt;br&gt;en&amp;nbsp; butacas" style="whiteSpace=wrap;html=1;gradientColor=none;labelBackgroundColor=none;fillColor=none;strokeColor=#ff0000;" vertex="1" parent="1">
          <mxGeometry x="280" y="1295" width="100" height="50" as="geometry" />
        </mxCell>
        <mxCell id="sP8aPzcV_vmlQebv2R2w-28" value="" style="html=1;points=[[0,0,0,0,5],[0,1,0,0,-5],[1,0,0,0,5],[1,1,0,0,-5]];perimeter=orthogonalPerimeter;outlineConnect=0;targetShapes=umlLifeline;portConstraint=eastwest;newEdgeStyle={&quot;curved&quot;:0,&quot;rounded&quot;:0};fillColor=#ffe6cc;strokeColor=#d79b00;" vertex="1" parent="1">
          <mxGeometry x="220" y="1316.5" width="10" height="45" as="geometry" />
        </mxCell>
        <mxCell id="sP8aPzcV_vmlQebv2R2w-29" value="estaDisponible()" style="html=1;verticalAlign=bottom;endArrow=block;curved=0;rounded=0;entryX=0;entryY=0;entryDx=0;entryDy=5;fillColor=#f8cecc;strokeColor=#b85450;" edge="1" parent="1" source="sP8aPzcV_vmlQebv2R2w-21" target="sP8aPzcV_vmlQebv2R2w-28">
          <mxGeometry relative="1" as="geometry">
            <mxPoint x="125" y="1324" as="sourcePoint" />
          </mxGeometry>
        </mxCell>
        <mxCell id="sP8aPzcV_vmlQebv2R2w-30" value="" style="html=1;verticalAlign=bottom;endArrow=open;dashed=1;endSize=8;curved=0;rounded=0;exitX=0;exitY=1;exitDx=0;exitDy=-5;fillColor=#f8cecc;strokeColor=#b85450;" edge="1" parent="1" source="sP8aPzcV_vmlQebv2R2w-28" target="sP8aPzcV_vmlQebv2R2w-21">
          <mxGeometry relative="1" as="geometry">
            <mxPoint x="125" y="1394" as="targetPoint" />
          </mxGeometry>
        </mxCell>
        <mxCell id="sP8aPzcV_vmlQebv2R2w-31" value="idOcupante" style="edgeLabel;html=1;align=center;verticalAlign=middle;resizable=0;points=[];" connectable="0" vertex="1" parent="sP8aPzcV_vmlQebv2R2w-30">
          <mxGeometry x="-0.2833" relative="1" as="geometry">
            <mxPoint x="-22" y="-14" as="offset" />
          </mxGeometry>
        </mxCell>
        <mxCell id="sP8aPzcV_vmlQebv2R2w-32" value="[ idOcupante==0 ]" style="text;html=1;align=center;verticalAlign=middle;resizable=0;points=[];autosize=1;strokeColor=none;fillColor=none;" vertex="1" parent="1">
          <mxGeometry x="85" y="1354" width="120" height="30" as="geometry" />
        </mxCell>
        <mxCell id="sP8aPzcV_vmlQebv2R2w-33" value="ocuparButaca(idUsuario)" style="html=1;verticalAlign=bottom;endArrow=block;curved=0;rounded=0;entryX=0;entryY=0;entryDx=0;entryDy=5;fillColor=#f8cecc;strokeColor=#b85450;" edge="1" parent="1" source="sP8aPzcV_vmlQebv2R2w-21" target="sP8aPzcV_vmlQebv2R2w-25">
          <mxGeometry x="-0.0359" y="-25" relative="1" as="geometry">
            <mxPoint x="125" y="1399" as="sourcePoint" />
            <mxPoint x="1" as="offset" />
          </mxGeometry>
        </mxCell>
        <mxCell id="sP8aPzcV_vmlQebv2R2w-34" value="[ nomPeli==p.nombre nomPeli==p.Nombre&amp;nbsp;&lt;span style=&quot;background-color: initial;&quot;&gt;&amp;amp;&amp;amp;&amp;nbsp;&lt;/span&gt;&lt;span style=&quot;background-color: rgb(255, 255, 255);&quot;&gt;&lt;font style=&quot;font-size: 12px;&quot;&gt;fechaBuscada == f.Fecha&lt;/font&gt;&lt;/span&gt;&lt;span style=&quot;background-color: initial;&quot;&gt;&amp;nbsp;&amp;amp;&amp;amp; idOcupante==0 ]&lt;/span&gt;" style="text;html=1;align=center;verticalAlign=middle;resizable=0;points=[];autosize=1;strokeColor=none;fillColor=none;" vertex="1" parent="1">
          <mxGeometry x="-605" y="1460" width="520" height="30" as="geometry" />
        </mxCell>
        <mxCell id="sP8aPzcV_vmlQebv2R2w-35" value="entrada : Entrada" style="shape=umlLifeline;perimeter=lifelinePerimeter;whiteSpace=wrap;html=1;container=1;dropTarget=0;collapsible=0;recursiveResize=0;outlineConnect=0;portConstraint=eastwest;newEdgeStyle={&quot;curved&quot;:0,&quot;rounded&quot;:0};labelBackgroundColor=none;fillColor=#FAE5C7;strokeColor=#0F8B8D;fontColor=#143642;size=30;" vertex="1" parent="1">
          <mxGeometry x="347.5" y="1490" width="100" height="90" as="geometry" />
        </mxCell>
        <mxCell id="sP8aPzcV_vmlQebv2R2w-36" value="entrada = new Entrada(f.horario,f.fecha,f.sala,b.fila,b.numero)" style="html=1;verticalAlign=bottom;endArrow=block;curved=0;rounded=0;fillColor=#f8cecc;strokeColor=#b85450;entryX=0.025;entryY=0.028;entryDx=0;entryDy=0;entryPerimeter=0;" edge="1" parent="1">
          <mxGeometry x="0.0089" y="-25" relative="1" as="geometry">
            <mxPoint x="-616" y="1510.52" as="sourcePoint" />
            <mxPoint as="offset" />
            <mxPoint x="350" y="1510.52" as="targetPoint" />
          </mxGeometry>
        </mxCell>
        <mxCell id="sP8aPzcV_vmlQebv2R2w-37" value="" style="html=1;points=[[0,0,0,0,5],[0,1,0,0,-5],[1,0,0,0,5],[1,1,0,0,-5]];perimeter=orthogonalPerimeter;outlineConnect=0;targetShapes=umlLifeline;portConstraint=eastwest;newEdgeStyle={&quot;curved&quot;:0,&quot;rounded&quot;:0};fillColor=#ffe6cc;strokeColor=#d79b00;" vertex="1" parent="1">
          <mxGeometry x="-234" y="1277" width="10" height="167" as="geometry" />
        </mxCell>
        <mxCell id="sP8aPzcV_vmlQebv2R2w-38" value="reservarButaca(idUsuario)" style="html=1;verticalAlign=bottom;endArrow=block;curved=0;rounded=0;fillColor=#f8cecc;strokeColor=#b85450;entryX=0;entryY=0;entryDx=0;entryDy=5;entryPerimeter=0;" edge="1" parent="1">
          <mxGeometry x="-0.2822" y="-20" relative="1" as="geometry">
            <mxPoint x="-223" y="1284" as="sourcePoint" />
            <mxPoint as="offset" />
            <mxPoint x="64" y="1284" as="targetPoint" />
          </mxGeometry>
        </mxCell>
        <mxCell id="sP8aPzcV_vmlQebv2R2w-39" value="b" style="html=1;verticalAlign=bottom;endArrow=open;dashed=1;endSize=8;curved=0;rounded=0;fillColor=#f8cecc;strokeColor=#b85450;" edge="1" parent="1">
          <mxGeometry x="-0.2456" relative="1" as="geometry">
            <mxPoint x="-620" y="1444" as="targetPoint" />
            <mxPoint as="offset" />
            <mxPoint x="-234" y="1444" as="sourcePoint" />
          </mxGeometry>
        </mxCell>
        <mxCell id="2Pw5fE2kkwVjFptcbwTA-1" value="AGREGAR HORARIO A LOS PARAMETROS" style="text;html=1;align=center;verticalAlign=middle;resizable=0;points=[];autosize=1;strokeColor=none;fillColor=none;" vertex="1" parent="1">
          <mxGeometry x="-571" y="1110" width="270" height="30" as="geometry" />
        </mxCell>
      </root>
    </mxGraphModel>
  </diagram>
</mxfile>
